<mxfile host="app.diagrams.net" modified="2021-05-25T14:02:50.122Z" agent="5.0 (Macintosh; Intel Mac OS X 10_15_7) AppleWebKit/537.36 (KHTML, like Gecko) Chrome/90.0.4430.212 Safari/537.36" etag="acorsRczRowFJ5gC_caM" version="13.6.3" type="github">
  <diagram id="QmeCzwqf-cW3lA_cRXww" name="Page-1">
    <mxGraphModel dx="1426" dy="692" grid="1" gridSize="10" guides="1" tooltips="1" connect="1" arrows="1" fold="1" page="1" pageScale="1" pageWidth="850" pageHeight="1100" math="0" shadow="0">
      <root>
        <mxCell id="0" />
        <mxCell id="1" parent="0" />
        <mxCell id="23zCmRrRgWBl9aHToti3-4" value="wp_esp_ticket" style="swimlane;childLayout=stackLayout;horizontal=1;startSize=30;horizontalStack=0;rounded=1;fontSize=14;fontStyle=0;strokeWidth=2;resizeParent=0;resizeLast=1;shadow=0;dashed=0;align=center;" parent="1" vertex="1">
          <mxGeometry x="140" y="660" width="160" height="120" as="geometry" />
        </mxCell>
        <mxCell id="23zCmRrRgWBl9aHToti3-5" value="tkt_id&#xa;tkt_name&#xa;tkt_description&#xa;tkt_price" style="align=left;strokeColor=none;fillColor=none;spacingLeft=4;fontSize=12;verticalAlign=top;resizable=0;rotatable=0;part=1;" parent="23zCmRrRgWBl9aHToti3-4" vertex="1">
          <mxGeometry y="30" width="160" height="90" as="geometry" />
        </mxCell>
        <mxCell id="23zCmRrRgWBl9aHToti3-1" value="wp_esp_registration" style="swimlane;childLayout=stackLayout;horizontal=1;startSize=30;horizontalStack=0;rounded=1;fontSize=14;fontStyle=0;strokeWidth=2;resizeParent=0;resizeLast=1;shadow=0;dashed=0;align=center;" parent="1" vertex="1">
          <mxGeometry x="140" y="330" width="160" height="120" as="geometry" />
        </mxCell>
        <mxCell id="JZMdNT-_qhLm3JeWCc2h-1" value="ATT_ID" style="text;html=1;align=center;verticalAlign=middle;resizable=0;points=[];autosize=1;" vertex="1" parent="1">
          <mxGeometry x="140" y="390" width="60" height="20" as="geometry" />
        </mxCell>
      </root>
    </mxGraphModel>
  </diagram>
</mxfile>
